# xmcd
# 
# Track frame offsets:
#     150
#     21852
#     36902
#     53980
#     68012
#     81440
#     96905
#     114545
#     129075
#     142790
#     158275
#     174107
#     188017
#     203327
# 
# Disc length: 3022
# 
# Revision: 2
# Processed by: cddbd v1.5.2PL0 Copyright (c) Steve Scherf et al.
# Submitted via: BonkEnc v1.0
# 
DISCID=a40bcc0e
DTITLE=Various Artist - A música da nossa terra
DYEAR=2001
DGENRE=Native American
TTITLE0=Os Serranos - Criado em galpão
TTITLE1=Os Monarcas - No império das estâncias
TTITLE2=Luiz Carlos Borges e Mauro Ferreira - Baile da fronteira
TTITLE3=Tchê Barbaridade - O Rio Grande me criou
TTITLE4=Os Mirins - Meu nome é Tchê
TTITLE5=Osvaldir e Carlos Magrão - Nós
TTITLE6=Grupo Rodeio - Gaúchos de fato
TTITLE7=Tchê Garotos - A vida que o véio mandou
TTITLE8=Candieiro - A volta do Gaiteiro
TTITLE9=Os Tiranos - Gaúchos do litoral
TTITLE10=Grupo Reponte - Bate-coxa no Totonho
TTITLE11=Mano Lima - Marculina pelagraia
TTITLE12=Os Bertussi - Cambicho de baile
TTITLE13=Xirú Missioneiro - Uma mina diferenti
EXTD=Nacional
EXTT0=
EXTT1=
EXTT2=
EXTT3=
EXTT4=
EXTT5=
EXTT6=
EXTT7=
EXTT8=
EXTT9=
EXTT10=
EXTT11=
EXTT12=
EXTT13=
PLAYORDER=
